<svg width="560" height="207" viewBox="0 0 560 207" fill="none" xmlns="http://www.w3.org/2000/svg">
<path d="M0 24C0 10.7452 10.7452 0 24 0H536C549.255 0 560 10.7452 560 24V207H0V24Z" fill="#D9D9D9"/>
<path d="M284.088 133H257.5L280 110.5L287.05 117.55C289.375 113.875 292.6 110.875 296.5 109L302.5 103V107.088C303.737 106.9 304.975 106.75 306.25 106.75C307.525 106.75 308.763 106.9 310 107.088V88L287.5 65.5H257.5C253.337 65.5 250 68.8375 250 73V133C250 134.989 250.79 136.897 252.197 138.303C253.603 139.71 255.511 140.5 257.5 140.5H286.788C285.475 138.213 284.538 135.7 284.088 133ZM283.75 71.125L304.375 91.75H283.75V71.125ZM265 91.75C266.989 91.75 268.897 92.5402 270.303 93.9467C271.71 95.3532 272.5 97.2609 272.5 99.25C272.5 101.239 271.71 103.147 270.303 104.553C268.897 105.96 266.989 106.75 265 106.75C260.837 106.75 257.5 103.412 257.5 99.25C257.5 95.0875 260.875 91.75 265 91.75ZM310 114.25V125.5H321.25V133H310V144.25H302.5V133H291.25V125.5H302.5V114.25H310Z" fill="#929292"/>
</svg>
