<svg width="100" height="100" viewBox="0 0 100 100" fill="none" xmlns="http://www.w3.org/2000/svg">
<circle cx="50" cy="50" r="50" fill="#D9D9D9"/>
<path d="M52.18 66H38L50 54L53.76 57.76C55 55.8 56.72 54.2 58.8 53.2L62 50V52.18C62.66 52.08 63.32 52 64 52C64.68 52 65.34 52.08 66 52.18V42L54 30H38C35.78 30 34 31.78 34 34V66C34 67.0609 34.4214 68.0783 35.1716 68.8284C35.9217 69.5786 36.9391 70 38 70H53.62C52.92 68.78 52.42 67.44 52.18 66ZM52 33L63 44H52V33ZM42 44C43.0609 44 44.0783 44.4214 44.8284 45.1716C45.5786 45.9217 46 46.9391 46 48C46 49.0609 45.5786 50.0783 44.8284 50.8284C44.0783 51.5786 43.0609 52 42 52C39.78 52 38 50.22 38 48C38 45.78 39.8 44 42 44ZM66 56V62H72V66H66V72H62V66H56V62H62V56H66Z" fill="#929292"/>
</svg>
